<?xml version="1.0" standalone="yes"?>
<svg width="283" height="176">
<path style="fill:#ffffff; stroke:none;" d="M0 0L0 173L22 172C18.645 158.727 52.7442 138.977 55 161L67 161C63.5411 146.472 63.955 129.903 62.9105 115C62.3204 106.581 61.0615 99.8354 65 92C57.4525 87.5898 48.858 79.986 61 74C61.072 65.4217 69.7848 59.1079 69.3333 52.0008C68.8102 43.7645 60.0321 47.1835 58.3179 40.9414C53.3548 22.8686 70.4519 2.54172 88 1L61 0L0 0z"/>
<path style="fill:#000000; stroke:none;" d="M61 74C47.693 77.9486 57.2698 88.7808 65 92C60.4188 98.9408 62.0787 107.135 62.8302 115C64.2332 129.682 62.8265 146.881 67 161L55 161C53.8007 137.882 17.1522 158.568 22 172L0 173C3.2588 177.281 10.1128 176 15 176L55 176L222 176L267 176C272.078 176 279.752 177.597 283 173L260 172C259.984 166.568 260.047 162.291 254 161C253.989 146.579 246.965 154.327 238.379 148.972C229.907 143.689 228.771 136.251 217 136C217.035 123.459 224.184 103.884 217 93C221.277 92.9972 226.282 93.4722 229.772 90.4861C237.365 83.9879 230.777 75.7061 223 75C222.625 70.1714 220.678 68.752 216 68C215.947 62.0222 211.105 55.5719 212.692 50.0193C214.283 44.4522 219.053 46.9036 221.821 43.3966C227.958 35.6212 219.833 18.1099 214.671 12.0147C206.363 2.20357 194.186 0.000778198 182 0L106 0C90.797 0 75.8778 0.0354919 65.3789 13.0039C60.6227 18.8786 53.2661 36.0973 59.0278 43.3966C62.1265 47.3223 68.7722 44.5745 68.9174 52.0008C68.9967 56.0551 64.9329 58.7434 63.0895 62C60.9802 65.7264 61.0114 69.8521 61 74z"/>
<path style="fill:#ffffff; stroke:none;" d="M192 0L192 1C209.496 2.431 228.131 22.3678 222.566 40.9414C220.814 46.7886 213.494 43.9623 212.077 51.0046C210.954 56.5869 215.861 62.09 216 68C220.252 69.1232 222.293 70.5522 223 75C230.911 76.2574 236.745 84.2979 228.891 90.4861C225.467 93.1838 221.117 92.9886 217 93C223.234 105.402 217.009 122.474 217 136C228.011 136.504 229.706 143.698 237.609 148.972C245.672 154.354 253.949 146.632 254 161C259.445 162.958 259.952 166.643 260 172L283 173L283 0L192 0z"/>
<path style="fill:#3d2711; stroke:none;" d="M104 3L104 4L176 4L153 3L104 3z"/>
<path style="fill:#6b8796; stroke:none;" d="M86 4L86 5L89 5L86 4z"/>
<path style="fill:#8b5826; stroke:none;" d="M98.6667 4.33333L99.3333 4.66667L98.6667 4.33333z"/>
<path style="fill:#f89d43; stroke:none;" d="M85 11L85 12L190 12C182.606 3.07626 172.527 4 162 4C138.627 4 105.2 -2.32193 85 11z"/>
<path style="fill:#784b33; stroke:none;" d="M179 4L179 5L182 5L179 4z"/>
<path style="fill:#81a3b5; stroke:none;" d="M191 4L191 5L194 6L191 4z"/>
<path style="fill:#acd9f1; stroke:none;" d="M68 41L70 41C70.0016 26.173 75.0339 15.1172 87 6C82.9632 4.6057 79.7632 8.23878 77.0895 11.0401C68.5691 19.9675 68 29.3687 68 41z"/>
<path style="fill:#c07951; stroke:none;" d="M181 5L181 6L195 12L181 5z"/>
<path style="fill:#acd9f1; stroke:none;" d="M194 5L194 6C210.064 10.6384 217.998 25.2208 218 41C224.442 25.6483 209.207 6.55759 194 5z"/>
<path style="fill:#46aadf; stroke:none;" d="M62 41L68 41C68 26.8024 70.6398 15.7125 83 7C66.5839 2.64261 62 30.7745 62 41M195 6C204.201 18.1743 210 25.1131 210 41L218 41C218 25.2404 211.349 10.7207 195 6z"/>
<path style="fill:#566c78; stroke:none;" d="M202 7L203 8L202 7z"/>
<path style="fill:#7c4e21; stroke:none;" d="M87 9L88 10L87 9M84 12L84 13L197 13C189.864 8.8741 173.394 12 165 12L84 12z"/>
<path style="fill:#617a88; stroke:none;" d="M76 15L77 16L76 15z"/>
<path style="fill:#3e342a; stroke:none;" d="M81 15L81 16L199 16L163 15L81 15z"/>
<path style="fill:#fcd3aa; stroke:none;" d="M80 16L80 18L195 18L195 16L80 16z"/>
<path style="fill:#c29f98; stroke:none;" d="M195 16L195 18L201 18L195 16z"/>
<path style="fill:#f89d43; stroke:none;" d="M79 17L75 27L126.896 26.8526L136.015 21.3441L154 19.0046L172.999 21.1481L182.17 26.6829L199 27C196.603 13.5723 179.585 18 169 18L111 18C100.637 18 89.1171 19.4087 79 17z"/>
<path style="fill:#c07951; stroke:none;" d="M196 18L199 27L205 27C203.975 21.258 202.025 18.2002 196 18z"/>
<path style="fill:#566c78; stroke:none;" d="M214 18L215 19L214 18z"/>
<path style="fill:#fabb7c; stroke:none;" d="M130 27L180 27C174.415 15.6724 134.71 14.4011 130 27z"/>
<path style="fill:#2c6a8b; stroke:none;" d="M62.3333 26.6667L62.6667 27.3333L62.3333 26.6667z"/>
<path style="fill:#3e2e1f; stroke:none;" d="M205 26L163 27L75 27L75 28L175 28L198 28L205 26z"/>
<path style="fill:#81a3b5; stroke:none;" d="M218.333 27.6667L218.667 28.3333L218.333 27.6667z"/>
<path style="fill:#1b4257; stroke:none;" d="M209 28L209 31L210 31L209 28z"/>
<path style="fill:#2b363c; stroke:none;" d="M70 30L70 42L71 42L70 30z"/>
<path style="fill:#7e7062; stroke:none;" d="M74 30L74 31L206 31C195.496 26.5924 177.42 30 166 30L74 30z"/>
<path style="fill:#2a363c; stroke:none;" d="M219.333 30.6667L219.667 31.3333L219.333 30.6667z"/>
<path style="fill:#347fa7; stroke:none;" d="M61 31L61 39L62 39L61 31z"/>
<path style="fill:#fde0c4; stroke:none;" d="M74 31L74 33L201 33L201 31L74 31z"/>
<path style="fill:#c29f98; stroke:none;" d="M201 31L201 33L206 33L206 31L201 31z"/>
<path style="fill:#905b3d; stroke:none;" d="M206 31L206 41L207 41L206 31z"/>
<path style="fill:#566c78; stroke:none;" d="M219 32L219 40L220 40L219 32z"/>
<path style="fill:#f89d43; stroke:none;" d="M74 33L74 41L163.985 40.9815L180 35.7076L201 41L201 33L177 33.213L153 37.9992L132 33.1049L74 33z"/>
<path style="fill:#fabb7c; stroke:none;" d="M135 33L135 34C148.25 39.4069 161.629 39.1492 175 34C164.488 29.589 146.434 33 135 33z"/>
<path style="fill:#c07951; stroke:none;" d="M201 33L201 41L206 41L206 33L201 33z"/>
<path style="fill:#3d2711; stroke:none;" d="M73 35L73 40L74 40L73 35z"/>
<path style="fill:#33c92e; stroke:none;" d="M179 58L180 58L192 50C190.277 43.7083 187.306 38.7024 180 38.5355C174.457 38.4089 166.452 44.2861 168.708 50.6975C169.769 53.7138 176.497 55.95 179 58z"/>
<path style="fill:#1e4a61; stroke:none;" d="M61.3333 39.6667L61.6667 40.3333L61.3333 39.6667z"/>
<path style="fill:#2f5b71; stroke:none;" d="M62 41L62 42L70 42L62 41z"/>
<path style="fill:#7c4e21; stroke:none;" d="M74 41L74 42L99 42L74 41M103 41L103 42L168 42L147 41L103 41M192 41L192 42L206 42L192 41z"/>
<path style="fill:#23556f; stroke:none;" d="M210 41L210 42L219 42L210 41z"/>
<path style="fill:#11202f; stroke:none;" d="M74 44L74 45L99 46C94.9199 41.3308 80.0194 44 74 44z"/>
<path style="fill:#340202; stroke:none;" d="M101 44L101 53L102 53L103 44L101 44z"/>
<path style="fill:#11202f; stroke:none;" d="M110 44L110 45L167 46L152 44L110 44M193 46L210 45C205.905 43.2816 196.084 42.4712 193 46z"/>
<path style="fill:#193046; stroke:none;" d="M71.3333 45.6667L71.6667 46.3333L71.3333 45.6667z"/>
<path style="fill:#4382bd; stroke:none;" d="M72 45L74 54C82.2486 52.0362 87.7336 54.1775 95 58L98 45L72 45z"/>
<path style="fill:#ce0609; stroke:none;" d="M102 45L102 64L117 58L102 45z"/>
<path style="fill:#4382bd; stroke:none;" d="M113 45L113 46L130 52L129 56L150 57.1111L165 52L166 45L113 45M194 45C195.706 50.1575 203.147 50.8774 208 52L210 45L194 45z"/>
<path style="fill:#734a4d; stroke:none;" d="M108.667 46.3333L109.333 46.6667L108.667 46.3333z"/>
<path style="fill:#fb9393; stroke:none;" d="M109 47C112.946 51.8785 119.084 58.009 125 53L109 47z"/>
<path style="fill:#21415e; stroke:none;" d="M195 49L195 50L200 50L195 49z"/>
<path style="fill:#1d3952; stroke:none;" d="M208.333 49.6667L208.667 50.3333L208.333 49.6667z"/>
<path style="fill:#8e0001; stroke:none;" d="M99 50L94 69C101.101 66.1565 101.75 56.5533 99 50z"/>
<path style="fill:#193046; stroke:none;" d="M96.3333 51.6667L96.6667 52.3333L96.3333 51.6667z"/>
<path style="fill:#1d3952; stroke:none;" d="M129.333 52.6667L129.667 53.3333L129.333 52.6667z"/>
<path style="fill:#7e724a; stroke:none;" d="M194 52L194 53L200 53L194 52z"/>
<path style="fill:#26496a; stroke:none;" d="M85.6667 53.3333L86.3333 53.6667L85.6667 53.3333z"/>
<path style="fill:#fce595; stroke:none;" d="M182 61L190 59L196 54C190.094 51.5975 184.741 55.9589 182 61z"/>
<path style="fill:#f8c615; stroke:none;" d="M189 60C200.691 57.632 202.801 63.9453 213 67C211.775 55.1202 194.68 46.3069 189 60z"/>
<path style="fill:#825255; stroke:none;" d="M123 54L124 55L123 54z"/>
<path style="fill:#8e0001; stroke:none;" d="M121 65L122 65L127 55C121.424 56.7119 121.019 59.5561 121 65z"/>
<path style="fill:#bdac70; stroke:none;" d="M161 55L161 56L168 56L161 55z"/>
<path style="fill:#4e472e; stroke:none;" d="M168.667 55.3333L169.333 55.6667L168.667 55.3333z"/>
<path style="fill:#6e6441; stroke:none;" d="M186 55L187 56L186 55z"/>
<path style="fill:#8d8054; stroke:none;" d="M75 56L75 57L78 57L75 56z"/>
<path style="fill:#fce595; stroke:none;" d="M65 75L66 75C66.4549 66.2509 75.2509 57.4549 84 57C71.3772 51.8516 65.0011 64.8717 65 75z"/>
<path style="fill:#7d6e3a; stroke:none;" d="M84.6667 56.3333L85.3333 56.6667L84.6667 56.3333z"/>
<path style="fill:#193046; stroke:none;" d="M128.667 56.3333L129.333 56.6667L128.667 56.3333z"/>
<path style="fill:#fce595; stroke:none;" d="M153 60L153 61L155 64L157 64L163 57C159.053 55.5102 156.185 57.6463 153 60z"/>
<path style="fill:#f8c615; stroke:none;" d="M158 62C165.982 60.9921 176.368 62.2862 175 73C192.451 65.3634 163.077 45.7756 158 62M65 76C72.7791 76.6735 70.4711 66.3229 77.0046 63.0285C83.6745 59.6654 87.0308 66.3 92 69C93.1615 59.7542 85.9511 52.3924 76.2986 58.4568C69.846 62.5107 66.732 68.9886 65 76z"/>
<path style="fill:#6e6441; stroke:none;" d="M135 57L135 58L141 58L135 57z"/>
<path style="fill:#8d8054; stroke:none;" d="M156 57L157 58L156 57z"/>
<path style="fill:#7e724a; stroke:none;" d="M71 58L72 59L71 58z"/>
<path style="fill:#fce595; stroke:none;" d="M124 70L125 70C129.635 61.103 140.132 59.9739 149 62C140.621 53.9033 125.342 57.9523 124 70z"/>
<path style="fill:#cd8331; stroke:none;" d="M192 60L201 60C197.786 58.0778 195.046 57.7286 192 60z"/>
<path style="fill:#ce0609; stroke:none;" d="M104 66C107.265 71.9025 113.46 68.2532 119 68L119 59L104 66z"/>
<path style="fill:#6e6441; stroke:none;" d="M153 59L154 60L153 59z"/>
<path style="fill:#7e724a; stroke:none;" d="M182 59L183 60L182 59z"/>
<path style="fill:#3e3925; stroke:none;" d="M186 59L186 60L189 60L186 59z"/>
<path style="fill:#f79e1f; stroke:none;" d="M194 60L194 61L205 64L202 59L194 60z"/>
<path style="fill:#f8c615; stroke:none;" d="M125 71C130.426 70.5688 132.007 65.6735 137.004 64.4491C147.188 61.9538 147.505 74.3742 153 79C162.686 58.8729 128.46 53.8671 125 71z"/>
<path style="fill:#6b441f; stroke:none;" d="M191.667 60.3333L192.333 60.6667L191.667 60.3333z"/>
<path style="fill:#f9b44d; stroke:none;" d="M203 60L207 65L203 60z"/>
<path style="fill:#8b6f0c; stroke:none;" d="M93 61L93 64L94 64L93 61z"/>
<path style="fill:#bf7a37; stroke:none;" d="M158 68C161.584 64.043 164.743 63.0586 170 63C165.938 59.9232 153.863 60.9339 158 68z"/>
<path style="fill:#bdac70; stroke:none;" d="M182.667 61.3333L183.333 61.6667L182.667 61.3333z"/>
<path style="fill:#bf7a37; stroke:none;" d="M71 74L72 74C74.4616 67.9519 77.0839 63.7703 84 63C75.7661 59.554 71.088 66.5514 71 74z"/>
<path style="fill:#f79e1f; stroke:none;" d="M73 72L89 68C85.1233 58.5689 74.64 63.8953 73 72z"/>
<path style="fill:#7e724a; stroke:none;" d="M154 62L155 63L154 62z"/>
<path style="fill:#f79e1f; stroke:none;" d="M159 72L174 73L171 62C164.526 63.5462 157.4 63.3482 159 72z"/>
<path style="fill:#4d3608; stroke:none;" d="M187.667 62.3333L188.333 62.6667L187.667 62.3333z"/>
<path style="fill:#f8c615; stroke:none;" d="M186 63C186.318 72.698 196.091 71.3521 199.806 79.0154C201.732 82.9893 199.095 87.1608 198 91C211.932 91 216.032 86.7725 220 73L186 63z"/>
<path style="fill:#4d3d07; stroke:none;" d="M190.667 63.3333L191.333 63.6667L190.667 63.3333z"/>
<path style="fill:#6b0b10; stroke:none;" d="M102.667 64.3333L103.333 64.6667L102.667 64.3333z"/>
<path style="fill:#bf7a37; stroke:none;" d="M130 71C137.596 66.8755 140.012 65.2627 148 70C143.942 61.7748 133.028 62.3069 130 71z"/>
<path style="fill:#5c4a08; stroke:none;" d="M193.667 64.3333L194.333 64.6667L193.667 64.3333z"/>
<path style="fill:#6c5609; stroke:none;" d="M92.3333 65.6667L92.6667 66.3333L92.3333 65.6667z"/>
<path style="fill:#5c4a08; stroke:none;" d="M196.667 65.3333L197.333 65.6667L196.667 65.3333z"/>
<path style="fill:#aa880e; stroke:none;" d="M207.667 65.3333L208.333 65.6667L207.667 65.3333z"/>
<path style="fill:#f79e1f; stroke:none;" d="M132 71C139.111 69.3078 142.988 71.3105 149 75C148.291 66.0048 136.379 62.655 132 71z"/>
<path style="fill:#fad655; stroke:none;" d="M174 66L174 73L175 73L174 66z"/>
<path style="fill:#bdac70; stroke:none;" d="M64 67L64 72L65 72L64 67z"/>
<path style="fill:#7c630a; stroke:none;" d="M181 67L181 70L182 70L181 67z"/>
<path style="fill:#3d2708; stroke:none;" d="M81 68L81 69L90 69L81 68z"/>
<path style="fill:#fb9393; stroke:none;" d="M96 70C99.3226 73.0649 101.862 73.9848 106 72C102.852 68.4457 100.285 68.0414 96 70z"/>
<path style="fill:#670304; stroke:none;" d="M113 68L113 69L119 69L113 68z"/>
<path style="fill:#343434; stroke:none;" d="M123 68L123 72L124 72L123 68z"/>
<path style="fill:#4d3d07; stroke:none;" d="M209.667 69.3333L210.333 69.6667L209.667 69.3333z"/>
<path style="fill:#7b4f0f; stroke:none;" d="M133 70L133 71L139 71L133 70z"/>
<path style="fill:#3d2708; stroke:none;" d="M139 70L139 71L143 71L139 70z"/>
<path style="fill:#7b4f0f; stroke:none;" d="M158 70L160 73L158 70z"/>
<path style="fill:#4d3d07; stroke:none;" d="M179.667 70.3333L180.333 70.6667L179.667 70.3333M212.667 70.3333L213.333 70.6667L212.667 70.3333z"/>
<path style="fill:#bdac70; stroke:none;" d="M82 71L82 72L88 72L82 71z"/>
<path style="fill:#7e724a; stroke:none;" d="M88.6667 71.3333L89.3333 71.6667L88.6667 71.3333z"/>
<path style="fill:#3e3925; stroke:none;" d="M114 71L114 72L119 73L114 71z"/>
<path style="fill:#7c630a; stroke:none;" d="M155 71L155 75L156 75L155 71z"/>
<path style="fill:#5c4a08; stroke:none;" d="M215.667 71.3333L216.333 71.6667L215.667 71.3333z"/>
<path style="fill:#4e472e; stroke:none;" d="M64.3333 72.6667L64.6667 73.3333L64.3333 72.6667z"/>
<path style="fill:#fce595; stroke:none;" d="M72 79C78.1928 80.6488 79.1642 75.6988 84 73C78.9385 71.049 74.2702 74.56 72 79z"/>
<path style="fill:#f8c615; stroke:none;" d="M79 79C88.6897 75.4696 96.9434 79.9954 95 91C116.843 90.2736 82.7631 55.8799 79 79z"/>
<path style="fill:#fce595; stroke:none;" d="M104 80L117 73C111.278 70.6715 105.615 74.3815 104 80z"/>
<path style="fill:#2c45ae; stroke:none;" d="M181 72L183 74L183 72L181 72M186 72C188.083 75.6579 190.909 76.5779 195 77L195 76L186 72z"/>
<path style="fill:#5c4a08; stroke:none;" d="M218.667 72.3333L219.333 72.6667L218.667 72.3333z"/>
<path style="fill:#7e724a; stroke:none;" d="M115 73L116 74L115 73z"/>
<path style="fill:#2a363c; stroke:none;" d="M137 73L137 75L139 73L137 73z"/>
<path style="fill:#566c78; stroke:none;" d="M139 73L139 74L142 74L139 73z"/>
<path style="fill:#564507; stroke:none;" d="M175.667 73.3333L176.333 73.6667L175.667 73.3333z"/>
<path style="fill:#8d8054; stroke:none;" d="M75 74L76 75L75 74z"/>
<path style="fill:#347fa7; stroke:none;" d="M127 74L127 75L134 75L127 74z"/>
<path style="fill:#acd9f1; stroke:none;" d="M138 74L145 77L138 74z"/>
<path style="fill:#8d8054; stroke:none;" d="M162.667 74.3333L163.333 74.6667L162.667 74.3333z"/>
<path style="fill:#fce595; stroke:none;" d="M157 79C162.374 77.5789 172.296 81.1248 174 76C167.434 74.3021 161.846 73.4515 157 79z"/>
<path style="fill:#bdac70; stroke:none;" d="M167 74L167 75L170 75L167 74z"/>
<path style="fill:#7c630a; stroke:none;" d="M97 75L98 76L97 75z"/>
<path style="fill:#347fa7; stroke:none;" d="M118 75L118 76L122 76L118 75z"/>
<path style="fill:#46aadf; stroke:none;" d="M125 79L136 78C133.025 73.8749 126.713 73.8383 125 79z"/>
<path style="fill:#607a87; stroke:none;" d="M138 75L139 76L138 75z"/>
<path style="fill:#8d8054; stroke:none;" d="M172 75L173 76L172 75z"/>
<path style="fill:#2c45ae; stroke:none;" d="M178 75L171 91C175.036 88.3566 180.318 79.5941 178 75z"/>
<path style="fill:#f8c615; stroke:none;" d="M105 91L110 91L112 77C103.713 76.2132 105 85.1018 105 91z"/>
<path style="fill:#46aadf; stroke:none;" d="M115 80L121 80L122 76L115 80z"/>
<path style="fill:#566c78; stroke:none;" d="M145 76L143 77L143 78L145 76z"/>
<path style="fill:#7e724a; stroke:none;" d="M174.333 76.6667L174.667 77.3333L174.333 76.6667z"/>
<path style="fill:#f79e1f; stroke:none;" d="M75 80L75 81C80.4637 83.2747 86.2862 85.4825 89 91C95.6358 89.9168 97.0537 81.7521 90.9414 78.3179C85.6591 75.3501 80.1528 78.5304 75 80z"/>
<path style="fill:#81a3b5; stroke:none;" d="M140 77L140 78L143 78L140 77z"/>
<path style="fill:#f8c615; stroke:none;" d="M155 82C161.413 80.6778 166.818 79.3185 169 87L170 87L173 80C166.536 78.3234 159.568 74.4522 155 82z"/>
<path style="fill:#2c45ae; stroke:none;" d="M177 91C180.404 91 185.455 91.9219 188.582 90.3966C197.828 85.886 186.127 69.7554 179.263 83.9992C178.143 86.3226 177.449 88.4787 177 91z"/>
<path style="fill:#f8c615; stroke:none;" d="M76 85C73.7056 83.6608 71.3805 82.4274 68.9985 81.2469C48.3811 71.0296 68.2786 101.974 76 85z"/>
<path style="fill:#6e6441; stroke:none;" d="M71 78L72 79L71 78z"/>
<path style="fill:#23556f; stroke:none;" d="M129 78L129 79L135 79L129 78z"/>
<path style="fill:#a5840e; stroke:none;" d="M151 79L149 84L153 79L151 79z"/>
<path style="fill:#7d6e3a; stroke:none;" d="M173 79L174 80L173 79z"/>
<path style="fill:#2c45ae; stroke:none;" d="M197 79L196 81L198 81L197 79z"/>
<path style="fill:#5c4a08; stroke:none;" d="M200.333 79.6667L200.667 80.3333L200.333 79.6667z"/>
<path style="fill:#ffffff; stroke:none;" d="M217 89C234.854 88.9488 224.324 71.4235 217 89z"/>
<path style="fill:#2a363c; stroke:none;" d="M143 80L143 81L147 82L143 80z"/>
<path style="fill:#1c455a; stroke:none;" d="M132 81L132 82L137 83L132 81z"/>
<path style="fill:#acd9f1; stroke:none;" d="M140 81L139 87L146 81L140 81z"/>
<path style="fill:#6c5609; stroke:none;" d="M157.667 81.3333L158.333 81.6667L157.667 81.3333M57.3333 82.6667L57.6667 83.3333L57.3333 82.6667z"/>
<path style="fill:#347fa7; stroke:none;" d="M124 84L129 83L124 84z"/>
<path style="fill:#46aadf; stroke:none;" d="M125 83C126.539 88.3098 128.312 90.811 134 91L136 82L125 83z"/>
<path style="fill:#4d3d07; stroke:none;" d="M154.667 82.3333L155.333 82.6667L154.667 82.3333z"/>
<path style="fill:#fbdf7e; stroke:none;" d="M95 83L93 91C95.9095 88.9445 96.3263 86.2569 95 83z"/>
<path style="fill:#347fa7; stroke:none;" d="M115 85L118 84L115 85z"/>
<path style="fill:#46aadf; stroke:none;" d="M116 84L116 86L124 91C123.095 86.0195 121.368 83.1056 116 84z"/>
<path style="fill:#7695a5; stroke:none;" d="M139.333 83.6667L139.667 84.3333L139.333 83.6667z"/>
<path style="fill:#607a87; stroke:none;" d="M144 83L145 84L144 83z"/>
<path style="fill:#564507; stroke:none;" d="M148.333 83.6667L148.667 84.3333L148.333 83.6667z"/>
<path style="fill:#aa880e; stroke:none;" d="M162 83L162 84L165 84L162 83z"/>
<path style="fill:#4d310a; stroke:none;" d="M168.333 83.6667L168.667 84.3333L168.333 83.6667z"/>
<path style="fill:#000000; stroke:none;" d="M25 84L25 91L32 91L32 84L25 84z"/>
<path style="fill:#f79e1f; stroke:none;" d="M109 84C109.322 89.8036 111.416 90.9335 117 91L109 84z"/>
<path style="fill:#f8c615; stroke:none;" d="M159 84L161 91L166 91C165.826 85.6899 164.31 84.1744 159 84z"/>
<path style="fill:#2c45ae; stroke:none;" d="M196 84L193 91L198 84L196 84z"/>
<path style="fill:#fce595; stroke:none;" d="M76 85L73 91C76.7136 90.8773 78.5633 90.5762 80 87L76 85z"/>
<path style="fill:#7e724a; stroke:none;" d="M77 85L78 86L77 85z"/>
<path style="fill:#163545; stroke:none;" d="M135.333 85.6667L135.667 86.3333L135.333 85.6667z"/>
<path style="fill:#8d8054; stroke:none;" d="M155.667 85.3333L156.333 85.6667L155.667 85.3333z"/>
<path style="fill:#fce595; stroke:none;" d="M155 86C155.827 89.7948 157.171 90.6956 161 91L160 85L155 86z"/>
<path style="fill:#7e724a; stroke:none;" d="M79 86L80 87L79 86z"/>
<path style="fill:#566c78; stroke:none;" d="M141 86L142 87L141 86z"/>
<path style="fill:#aa880e; stroke:none;" d="M152.667 86.3333L153.333 86.6667L152.667 86.3333z"/>
<path style="fill:#f8c615; stroke:none;" d="M154 86L140 90L140 91L156 91L154 86z"/>
<path style="fill:#f8c81d; stroke:none;" d="M80 87L79 91L80 87z"/>
<path style="fill:#fce595; stroke:none;" d="M82 88L81 91L84 91L82 88z"/>
<path style="fill:#7e724a; stroke:none;" d="M83 88L84 89L83 88z"/>
<path style="fill:#3d2708; stroke:none;" d="M88 88L88 92L89 92L88 88z"/>
<path style="fill:#1e4a61; stroke:none;" d="M134.333 88.6667L134.667 89.3333L134.333 88.6667z"/>
<path style="fill:#8b6f0c; stroke:none;" d="M145.667 88.3333L146.333 88.6667L145.667 88.3333z"/>
<path style="fill:#aa880e; stroke:none;" d="M166.333 88.6667L166.667 89.3333L166.333 88.6667z"/>
<path style="fill:#f8c81d; stroke:none;" d="M84.3333 89.6667L84.6667 90.3333L84.3333 89.6667z"/>
<path style="fill:#aa6c15; stroke:none;" d="M142.667 89.3333L143.333 89.6667L142.667 89.3333z"/>
<path style="fill:#7b4f0f; stroke:none;" d="M104 90L118 92L118 91L104 90z"/>
<path style="fill:#214f68; stroke:none;" d="M124 90L123 92L125 92L124 90z"/>
<path style="fill:#7c630a; stroke:none;" d="M138 91L138 92L156 92L138 91z"/>
<path style="fill:#162257; stroke:none;" d="M176 90L189 92L189 91L176 90z"/>
<path style="fill:#7e724a; stroke:none;" d="M73 91L73 92L83 92L73 91z"/>
<path style="fill:#504007; stroke:none;" d="M83.6667 91.3333L84.3333 91.6667L83.6667 91.3333z"/>
<path style="fill:#7e724a; stroke:none;" d="M89 91L89 92L95 92L89 91z"/>
<path style="fill:#7c630a; stroke:none;" d="M95 91L95 92L100 92L95 91z"/>
<path style="fill:#23556f; stroke:none;" d="M129 91L129 92L134 92L129 91z"/>
<path style="fill:#7e724a; stroke:none;" d="M156 91L156 92L161 92L156 91z"/>
<path style="fill:#162257; stroke:none;" d="M193.667 91.3333L194.333 91.6667L193.667 91.3333z"/>
<path style="fill:#7b4f0f; stroke:none;" d="M199 91L199 92L211 92L199 91z"/>
<path style="fill:#000000; stroke:none;" d="M13 94L11 96L11 97L13 99L14 99L16 97L16 96L13 94z"/>
<path style="fill:#2a363c; stroke:none;" d="M69 94L69 95L83 95L69 94M86 97L87 97C93.5119 92.0666 108.98 95 117 95L195 95L195 100L196 100L196 94L112 94C106.685 94 87.2266 91.2758 86 97M199 94L199 95L212 95L199 94z"/>
<path style="fill:#acd9f1; stroke:none;" d="M67 96L67 97C73.1553 97 80.7765 95.3284 82 103L83 103L83 95L67 96M87 95L87 96L195 96L162 95L87 95M199 95L199 96C212.045 96.0014 214 100.757 214 113C220.738 97.9913 211.828 95 199 95z"/>
<path style="fill:#46aadf; stroke:none;" d="M66 96L66 113C71.4077 112.984 90.61 105.866 80.4105 98.0278C77.2272 95.5813 69.9616 96.9432 66 96z"/>
<path style="fill:#566c78; stroke:none;" d="M83 96L83 100L84 100L83 96z"/>
<path style="fill:#46aadf; stroke:none;" d="M87 96L87 100L195 100L195 96L87 96z"/>
<path style="fill:#112a37; stroke:none;" d="M198 96L198 100L199 100L198 96z"/>
<path style="fill:#46aadf; stroke:none;" d="M199 96C199.095 107.285 204.302 111.918 215 114C211.997 101.386 214.436 96 199 96z"/>
<path style="fill:#607a87; stroke:none;" d="M215 97L216 98L215 97z"/>
<path style="fill:#347fa7; stroke:none;" d="M65 98L65 106L66 106L65 98z"/>
<path style="fill:#000000; stroke:none;" d="M246 98L245 99L245 101L246 102L248 102L249 101L249 99L248 98L246 98z"/>
<path style="fill:#2a363c; stroke:none;" d="M216 99L216 102L217 102L216 99z"/>
<path style="fill:#112936; stroke:none;" d="M87 100L87 101L195 101L162 100L87 100z"/>
<path style="fill:#794d22; stroke:none;" d="M86 103L86 104L196 104L163 103L86 103z"/>
<path style="fill:#f89d43; stroke:none;" d="M76 121L117 120.942L128 117.228L149 117.001L164.039 120.942L205 121L206 115C201.621 112.415 199.083 106.529 194.74 104.603C188.389 101.788 176.901 104 170 104L110 104C97.114 104 76.6089 102.674 76 121z"/>
<path style="fill:#566c78; stroke:none;" d="M215 107L215 110L216 110L215 107z"/>
<path style="fill:#000000; stroke:none;" d="M28.1736 109.175C25.7941 109.609 26.4371 113.542 28.8264 113.083C31.1765 112.632 30.6085 108.731 28.1736 109.175M260 109L257 112L257 115L260 118L263 118L266 115L266 112L263 109L260 109z"/>
<path style="fill:#2a363c; stroke:none;" d="M215 110L215 113L216 113L215 110z"/>
<path style="fill:#347fa7; stroke:none;" d="M66 113L66 114L72 114L66 113z"/>
<path style="fill:#2c6a8b; stroke:none;" d="M210 113L210 114L213 114L210 113z"/>
<path style="fill:#3c2611; stroke:none;" d="M75 116L75 121L76 121L75 116z"/>
<path style="fill:#112a37; stroke:none;" d="M66 117L66 121L67 121L66 117z"/>
<path style="fill:#46aadf; stroke:none;" d="M67 117L70 153L75 153L72 117L67 117z"/>
<path style="fill:#3d2711; stroke:none;" d="M125 117L125 118L157 118L125 117z"/>
<path style="fill:#965d3a; stroke:none;" d="M205 117L205 121L206 121L205 117z"/>
<path style="fill:#46aadf; stroke:none;" d="M209 117L208 138C215.605 136.34 213.999 123.386 214 117L209 117z"/>
<path style="fill:#23556f; stroke:none;" d="M214 117L214 121L215 121L214 117M72 119L72 125L73 125L72 119z"/>
<path style="fill:#676b70; stroke:none;" d="M126 120L126 121L156 121L126 120z"/>
<path style="fill:#3d2711; stroke:none;" d="M76 121L76 122L121 122C109.299 117.09 88.742 121 76 121z"/>
<path style="fill:#cfd6e0; stroke:none;" d="M125 121L125 122C134.932 122 156.246 117.275 157 131C163.316 115.943 133.42 121 125 121z"/>
<path style="fill:#3d2711; stroke:none;" d="M161 121L161 122L205 122C193.537 117.19 173.48 121 161 121z"/>
<path style="fill:#94a5ba; stroke:none;" d="M124 122L125.028 131.397L134 133L158 132C154.304 117.053 136.987 122 124 122z"/>
<path style="fill:#000000; stroke:none;" d="M247.564 123.171C245.573 124.471 247.241 128.261 249.436 126.829C251.427 125.529 249.759 121.739 247.564 123.171M139.303 124.175C135.963 125.817 138.247 130.742 141.697 129.338C145.115 127.947 142.569 122.57 139.303 124.175z"/>
<path style="fill:#347fa7; stroke:none;" d="M208 123L208 128L209 128L208 123z"/>
<path style="fill:#23556f; stroke:none;" d="M67 124L67 130L68 130L67 124z"/>
<path style="fill:#7e6955; stroke:none;" d="M76 124L76 125L120 125L120 132L121 132L121 124L76 124M161 124L161 125L205 125C193.537 120.19 173.48 124 161 124z"/>
<path style="fill:#bd9e7f; stroke:none;" d="M76.3333 125.667L76.6667 126.333L76.3333 125.667z"/>
<path style="fill:#fcd3aa; stroke:none;" d="M77 125L77 127L120 127L120 125L77 125z"/>
<path style="fill:#ba7632; stroke:none;" d="M161 125L161 131L162 131L161 125z"/>
<path style="fill:#fcd3aa; stroke:none;" d="M162 125L162 127L205 127L205 125L162 125z"/>
<path style="fill:#7b4e22; stroke:none;" d="M76 127L76 131L77 131L76 127z"/>
<path style="fill:#f89d43; stroke:none;" d="M77 127L78 144L170 144C177.058 144 196.725 147.448 202.258 142.972C205.329 140.487 204.703 130.767 205 127L162 127C159.43 141.177 146.287 140 135 140C131.22 140 125.44 141.027 122.318 138.397C119.187 135.759 120 130.641 120 127L77 127z"/>
<path style="fill:#23556f; stroke:none;" d="M213 127L213 133L214 133L213 127z"/>
<path style="fill:#676b70; stroke:none;" d="M139 130L139 131L142 131L139 130z"/>
<path style="fill:#347fa7; stroke:none;" d="M73 131L73 137L74 137L73 131z"/>
<path style="fill:#3b2511; stroke:none;" d="M204 131L204 137L205 137L204 131z"/>
<path style="fill:#c07951; stroke:none;" d="M120 132C120.37 143.355 149.448 143.691 156 137C143.973 137 129.794 139.813 120 132z"/>
<path style="fill:#4a525d; stroke:none;" d="M126 133L126 134L156 134L126 133z"/>
<path style="fill:#347fa7; stroke:none;" d="M207 134L209 139L207 134z"/>
<path style="fill:#7c4e21; stroke:none;" d="M158 135L159 136L158 135z"/>
<path style="fill:#23556f; stroke:none;" d="M68 136L68 142L69 142L68 136z"/>
<path style="fill:#2f1e14; stroke:none;" d="M125 136L125 137L157 137L125 136z"/>
<path style="fill:#4e472e; stroke:none;" d="M215 139L215 140L221 140L215 139z"/>
<path style="fill:#7c4e21; stroke:none;" d="M77 140L77 143L78 143L77 140z"/>
<path style="fill:#f8c615; stroke:none;" d="M224 165C219.56 165.561 213.172 167.195 209.6 163.436C204.307 157.867 210.354 147.528 217 146.567C220.416 146.073 223.923 148.844 227 150C218.687 131.943 196.918 144.656 202.854 161.996C205.772 170.519 223.568 178.15 224 165z"/>
<path style="fill:#fce595; stroke:none;" d="M214 140L214 141L233 150C228.842 142.007 222.525 140.024 214 140z"/>
<path style="fill:#5e5538; stroke:none;" d="M222.667 140.333L223.333 140.667L222.667 140.333z"/>
<path style="fill:#7e724a; stroke:none;" d="M225 141L226 142L225 141z"/>
<path style="fill:#23556f; stroke:none;" d="M74 143L74 149L75 149L74 143z"/>
<path style="fill:#7c4e21; stroke:none;" d="M78 144L78 145L202 145C191.973 140.792 174.896 144 164 144L78 144z"/>
<path style="fill:#bf7a37; stroke:none;" d="M212 148L212 149L225 150C221.033 145.838 217.071 145.564 212 148z"/>
<path style="fill:#3e342a; stroke:none;" d="M78 147L78 148L200 148C190.211 143.892 173.634 147 163 147L78 147z"/>
<path style="fill:#23556f; stroke:none;" d="M69 148L69 153L70 153L69 148z"/>
<path style="fill:#fcd3aa; stroke:none;" d="M78 148L78 149L117 150L172 150L200 149C190.211 144.892 173.634 148 163 148L78 148z"/>
<path style="fill:#f79e1f; stroke:none;" d="M222 165L222 164C216.851 159.456 218.128 154.975 222 150C213.229 145.803 203.149 154.299 211.434 162.427C214.28 165.22 218.318 164.987 222 165z"/>
<path style="fill:#f89d43; stroke:none;" d="M78 149C80.2303 159.795 91.5921 163 101 163L172 163C182.384 163 197.522 165.48 198 151L113 151C102.871 151 87.0013 154.006 78 149z"/>
<path style="fill:#fab877; stroke:none;" d="M79 150L79 151L199 151L163 150L79 150z"/>
<path style="fill:#7c630a; stroke:none;" d="M222 150L222 151L233 151L222 150z"/>
<path style="fill:#9b622a; stroke:none;" d="M198 151L198 154L199 154L198 151z"/>
<path style="fill:#6c441d; stroke:none;" d="M78.3333 152.667L78.6667 153.333L78.3333 152.667z"/>
<path style="fill:#5f5f5f; stroke:none;" d="M46 153L47 154L46 153z"/>
<path style="fill:#ffffff; stroke:none;" d="M47 153L45 154L48 161L51 160L47 153z"/>
<path style="fill:#f8c615; stroke:none;" d="M48 153L52 159L48 153z"/>
<path style="fill:#7c630a; stroke:none;" d="M201 153L201 157L202 157L201 153z"/>
<path style="fill:#f9c363; stroke:none;" d="M208 153L208 162L209 162L208 153z"/>
<path style="fill:#3d3105; stroke:none;" d="M223 153L223 154L249 154L223 153z"/>
<path style="fill:#b97617; stroke:none;" d="M218 154L218 161L219 161L218 154z"/>
<path style="fill:#f79e1f; stroke:none;" d="M222 161L229 161L229 154C223.69 154.174 222.174 155.69 222 161z"/>
<path style="fill:#f8c615; stroke:none;" d="M229 154L229 161L246 161L246 154L229 154z"/>
<path style="fill:#fce595; stroke:none;" d="M246 154L246 161L249 161L249 154L246 154z"/>
<path style="fill:#f9ce35; stroke:none;" d="M249 154L249 161L250 161L249 154z"/>
<path style="fill:#f9cd32; stroke:none;" d="M43 155L48 161L43 155z"/>
<path style="fill:#7c630a; stroke:none;" d="M250 155L250 160L251 160L250 155z"/>
<path style="fill:#ffffff; stroke:none;" d="M42 164L47 162C43.8055 154.977 39.4156 156.697 42 164z"/>
<path style="fill:#81a3b5; stroke:none;" d="M70 156L70 157L75 157L70 156z"/>
<path style="fill:#35434b; stroke:none;" d="M75.6667 156.333L76.3333 156.667L75.6667 156.333z"/>
<path style="fill:#fbdb6d; stroke:none;" d="M39.3333 157.667L39.6667 158.333L39.3333 157.667z"/>
<path style="fill:#acd9f1; stroke:none;" d="M70 157L70 159C77.1796 159.632 81.8935 163.187 86 169C89.0224 159.682 76.5263 157.005 70 157z"/>
<path style="fill:#f8c615; stroke:none;" d="M24 165C26.5206 175.258 35.7546 167.601 42 165C39.7362 153.92 30.3838 162.249 24 165z"/>
<path style="fill:#566c78; stroke:none;" d="M80 158L81 159L80 158z"/>
<path style="fill:#46aadf; stroke:none;" d="M70 159L70 161C77.1336 161.231 80.7685 164.866 81 172L87 172C85.3039 163.594 78.1289 159.372 70 159z"/>
<path style="fill:#7f7f7f; stroke:none;" d="M49 160L50 161L49 160z"/>
<path style="fill:#576e7a; stroke:none;" d="M198 160L199 161L198 160z"/>
<path style="fill:#347fa7; stroke:none;" d="M70 161L70 162L77 162L70 161z"/>
<path style="fill:#86c7ea; stroke:none;" d="M197 161L195 166L199 161L197 161z"/>
<path style="fill:#fce595; stroke:none;" d="M209 161L208 164L221 166L221 165L209 161z"/>
<path style="fill:#3d3105; stroke:none;" d="M223 161L223 162L249 162L223 161z"/>
<path style="fill:#9f9f9f; stroke:none;" d="M45 162L46 163L45 162z"/>
<path style="fill:#4b5e69; stroke:none;" d="M196 162L197 163L196 162z"/>
<path style="fill:#9f9f9f; stroke:none;" d="M43 163L44 164L43 163z"/>
<path style="fill:#566c78; stroke:none;" d="M85 163L86 164L85 163z"/>
<path style="fill:#ba7632; stroke:none;" d="M89 163L89 164L192 164L161 163L89 163z"/>
<path style="fill:#46aadf; stroke:none;" d="M194 172L206 172L200 163C195.533 164.955 194.16 167.177 194 172z"/>
<path style="fill:#7c630a; stroke:none;" d="M222 164L222 165L224 171L225 171L225 164L222 164z"/>
<path style="fill:#f79e1f; stroke:none;" d="M49 165L49 172L56 172L56 165L49 165z"/>
<path style="fill:#f8c615; stroke:none;" d="M56 165L56 172L66 172L66 165L56 165z"/>
<path style="fill:#ffffff; stroke:none;" d="M66 165L66 172L71 172L71 165L66 165z"/>
<path style="fill:#fad450; stroke:none;" d="M71 165L71 172L73 172L73 165L71 165z"/>
<path style="fill:#ffffff; stroke:none;" d="M73 165L73 172L76 172L76 165L73 165z"/>
<path style="fill:#347fa7; stroke:none;" d="M80 165L80 172L81 172L80 165z"/>
<path style="fill:#f79e1f; stroke:none;" d="M228 165L228 172L235 172L235 165L228 165z"/>
<path style="fill:#f8c615; stroke:none;" d="M235 165L235 172L252 172L252 165L235 165z"/>
<path style="fill:#fce595; stroke:none;" d="M252 165L252 172L255 172L255 165L252 165z"/>
<path style="fill:#f8c615; stroke:none;" d="M255 165L255 172L256 172L255 165z"/>
<path style="fill:#7b4f0f; stroke:none;" d="M48 166L48 171L49 171L48 166z"/>
<path style="fill:#f8c615; stroke:none;" d="M76 166L76 172L77 172L76 166z"/>
<path style="fill:#3d2708; stroke:none;" d="M227 166L227 171L228 171L227 166z"/>
<path style="fill:#3d3105; stroke:none;" d="M256 166L256 171L257 171L256 166z"/>
<path style="fill:#ffffff; stroke:none;" d="M44 167L37 171L37 172L45 172L44 167z"/>
<path style="fill:#46aadf; stroke:none;" d="M91 167L91 172L190 172L190 167L91 167z"/>
<path style="fill:#275f7d; stroke:none;" d="M190.333 167.667L190.667 168.333L190.333 167.667z"/>
<path style="fill:#7c630a; stroke:none;" d="M34 168L35 169L34 168z"/>
<path style="fill:#688596; stroke:none;" d="M87 168L87 172L88 172L87 168z"/>
<path style="fill:#7c630a; stroke:none;" d="M207 168L208 169L207 168z"/>
<path style="fill:#9b7b0d; stroke:none;" d="M27.6667 171.333L28.3333 171.667L27.6667 171.333z"/>
<path style="fill:#112a37; stroke:none;" d="M206 171L194 172L194 173L206 171z"/>
<path style="fill:#aa880e; stroke:none;" d="M212.667 171.333L213.333 171.667L212.667 171.333z"/>
<path style="fill:#3e3105; stroke:none;" d="M50 172L50 173L66 173L50 172z"/>
<path style="fill:#3f3f3f; stroke:none;" d="M66 172L66 173L76 173L66 172z"/>
<path style="fill:#112a37; stroke:none;" d="M80 172L80 173L88 173L80 172M91 172L91 173L190 173L160 172L91 172z"/>
<path style="fill:#ffffff; stroke:none;" d="M0 175L0 176L3 176L0 175M281.667 175.333L282.333 175.667L281.667 175.333z"/>
</svg>
